<?xml version="1.0" encoding="iso-8859-1"?>
<!-- Generator: Adobe Illustrator 22.1.0, SVG Export Plug-In . SVG Version: 6.00 Build 0)  -->
<svg xmlns="http://www.w3.org/2000/svg" xmlns:xlink="http://www.w3.org/1999/xlink" version="1.1" id="Layer_1_1_" x="0px" y="0px" viewBox="0 0 64 64" style="enable-background:new 0 0 64 64;" xml:space="preserve" width="512" height="512">
<linearGradient id="SVGID_1_" gradientUnits="userSpaceOnUse" x1="32" y1="63" x2="32" y2="1">
	<stop offset="0" style="stop-color:#9F2FFF"/>
	<stop offset="1" style="stop-color:#0BB1D3"/>
</linearGradient>
<path style="fill:url(#SVGID_1_);" d="M63,61v2c-2.36,0-3.598-1.277-4.592-2.304C57.491,59.748,56.767,59,55.253,59  c-1.513,0-2.237,0.748-3.154,1.695C51.104,61.723,49.866,63,47.506,63s-3.598-1.277-4.592-2.304C41.997,59.748,41.272,59,39.759,59  s-2.238,0.748-3.155,1.695C35.608,61.723,34.371,63,32.01,63s-3.599-1.277-4.593-2.304C26.499,59.748,25.773,59,24.259,59  c-1.514,0-2.239,0.748-3.157,1.695C20.107,61.723,18.87,63,16.509,63c-2.362,0-3.6-1.277-4.595-2.304  C10.995,59.748,10.27,59,8.755,59c-1.516,0-2.241,0.748-3.16,1.696C4.6,61.723,3.361,63,1,63v-2c1.515,0,2.24-0.748,3.159-1.696  C5.154,58.277,6.393,57,8.755,57s3.6,1.277,4.595,2.304C14.269,60.252,14.994,61,16.509,61c1.514,0,2.239-0.748,3.157-1.695  C20.66,58.277,21.897,57,24.259,57s3.6,1.277,4.594,2.305C29.771,60.252,30.496,61,32.01,61s2.239-0.748,3.157-1.696  C36.161,58.277,37.398,57,39.759,57s3.599,1.277,4.593,2.305C45.269,60.252,45.993,61,47.506,61c1.514,0,2.238-0.748,3.155-1.696  C51.655,58.277,52.893,57,55.253,57s3.599,1.277,4.593,2.305C60.763,60.252,61.487,61,63,61z M59.846,53.305  C58.852,52.277,57.613,51,55.253,51s-3.598,1.277-4.592,2.304C49.744,54.252,49.02,55,47.506,55c-1.513,0-2.237-0.748-3.154-1.695  C43.357,52.277,42.119,51,39.759,51s-3.598,1.277-4.592,2.304C34.249,54.252,33.523,55,32.01,55s-2.239-0.748-3.157-1.695  C27.858,52.277,26.62,51,24.259,51s-3.599,1.277-4.593,2.305C18.748,54.252,18.022,55,16.509,55c-1.515,0-2.24-0.748-3.159-1.696  C12.354,52.277,11.117,51,8.755,51s-3.601,1.277-4.596,2.304C3.24,54.252,2.515,55,1,55v2c2.361,0,3.6-1.277,4.595-2.304  C6.514,53.748,7.239,53,8.755,53c1.515,0,2.24,0.748,3.159,1.696C12.909,55.723,14.146,57,16.509,57  c2.361,0,3.599-1.277,4.593-2.305C22.02,53.748,22.745,53,24.259,53c1.515,0,2.24,0.748,3.158,1.696  C28.411,55.723,29.648,57,32.01,57s3.599-1.277,4.594-2.305C37.521,53.748,38.245,53,39.759,53s2.238,0.748,3.155,1.696  C43.908,55.723,45.146,57,47.506,57s3.599-1.277,4.593-2.305C53.016,53.748,53.74,53,55.253,53c1.514,0,2.238,0.748,3.155,1.696  C59.402,55.723,60.64,57,63,57v-2C61.487,55,60.763,54.252,59.846,53.305z M59.846,47.305c-0.857-0.885-1.899-1.951-3.679-2.231  l0.01-0.058c-0.216-0.04-5.288-1.073-5.288-8.571c0-3.293,0.843-5.535,2.505-6.664c2.805-1.908,7.191-0.202,7.236-0.185l1.501,0.595  l-0.135-1.606C61.99,28.508,61.246,21,51,21c-3.316,0-6.071,0.794-8.402,2.065c0.954-3.462,2.69-5.974,5.199-7.457  c5.441-3.211,12.799-0.689,12.871-0.665L62,15.41V14c0-0.13-0.206-13-18-13C25.147,1,16.587,16.062,10.336,27.06  C6.999,32.931,4.118,38,1,38v2c4.281,0,7.279-5.274,11.074-11.952C18.083,17.478,26.311,3,44,3c12.509,0,15.238,6.666,15.834,9.627  c-2.656-0.65-8.333-1.521-13.043,1.253c-3.491,2.056-5.709,5.687-6.604,10.78c-3.795,2.952-6.292,7.165-8.344,10.645  C30.04,38.361,28.484,41,27,41v2c2.627,0,4.364-2.947,6.565-6.679C37.065,30.386,41.421,23,51,23c5.611,0,7.736,2.492,8.534,4.197  c-1.893-0.417-4.883-0.684-7.256,0.923c-2.249,1.522-3.39,4.323-3.39,8.324c0,5.063,2.065,7.73,3.942,9.117  c-0.92,0.466-1.59,1.144-2.17,1.742C49.744,48.252,49.02,49,47.506,49c-1.513,0-2.237-0.748-3.154-1.695  C43.357,46.277,42.119,45,39.759,45s-3.598,1.277-4.592,2.304C34.249,48.252,33.523,49,32.01,49s-2.239-0.748-3.157-1.695  C27.858,46.277,26.62,45,24.259,45s-3.599,1.277-4.593,2.305C18.748,48.252,18.022,49,16.509,49c-1.515,0-2.24-0.748-3.159-1.696  C12.354,46.277,11.117,45,8.755,45s-3.601,1.277-4.596,2.304C3.24,48.252,2.515,49,1,49v2c2.361,0,3.6-1.277,4.595-2.304  C6.514,47.748,7.239,47,8.755,47c1.515,0,2.24,0.748,3.159,1.696C12.909,49.723,14.146,51,16.509,51  c2.361,0,3.599-1.277,4.593-2.305C22.02,47.748,22.745,47,24.259,47c1.515,0,2.24,0.748,3.158,1.696  C28.411,49.723,29.648,51,32.01,51s3.599-1.277,4.594-2.305C37.521,47.748,38.245,47,39.759,47s2.238,0.748,3.155,1.696  C43.908,49.723,45.146,51,47.506,51s3.599-1.277,4.593-2.305C53.016,47.748,53.74,47,55.253,47c1.514,0,2.238,0.748,3.155,1.696  C59.402,49.723,60.64,51,63,51v-2C61.487,49,60.763,48.252,59.846,47.305z M23.741,14.323c-3.786,4.119-6.6,8.859-9.626,14.183  l1.738,0.988c2.966-5.214,5.717-9.854,9.36-13.817L23.741,14.323z M27.37,10.891c-0.701,0.568-1.396,1.184-2.064,1.829l1.389,1.439  c0.628-0.605,1.279-1.183,1.936-1.716L27.37,10.891z"/>
</svg>
